<?xml version="1.0" encoding="iso-8859-1"?>
<!-- Generator: Adobe Illustrator 19.1.0, SVG Export Plug-In . SVG Version: 6.00 Build 0)  -->
<svg version="1.1" id="Layer_1" xmlns="http://www.w3.org/2000/svg" xmlns:xlink="http://www.w3.org/1999/xlink" x="0px" y="0px"
	 viewBox="0 0 22 22" style="enable-background:new 0 0 22 22;" xml:space="preserve">
<path d="M15.4,4.4C13.2,6.6,11,8.8,8.8,11l2.2,2.2c1.467-1.467,2.933-2.933,4.4-4.4l2.2,2.2c-2.2,2.2-4.4,4.4-6.6,6.6
	c-1.467-1.467-2.933-2.933-4.4-4.4L4.4,11c2.933-2.933,5.867-5.867,8.8-8.8L11,0C7.333,3.667,3.667,7.333,0,11
	c3.667,3.667,7.333,7.333,11,11c3.667-3.667,7.333-7.333,11-11C19.8,8.8,17.6,6.6,15.4,4.4z"/>
<g>
</g>
<g>
</g>
<g>
</g>
<g>
</g>
<g>
</g>
<g>
</g>
<g>
</g>
<g>
</g>
<g>
</g>
<g>
</g>
<g>
</g>
<g>
</g>
<g>
</g>
<g>
</g>
<g>
</g>
</svg>
